# xmcd
#
# Track frame offsets: 
#        150
#        12501
#        25251
#        36843
#        47568
#        58992
#        69691
#        79792
#        90794
#        101670
#        112961
#        121361
#        131602
#        142318
#        152536
#        163059
#        176808
#        185283
#        194772
#        209388
#
# Disc length: 2980 seconds
#
# Revision: 0
# Processed by: cddbd v1.5.2PL0 Copyright (c) Steve Scherf et al.
# Submitted via: ExactAudioCopy v0.95b3
#
DISCID=1f0ba214
DTITLE=Mel Street - 20 Super Hits
DYEAR=2008
DGENRE=Country
TTITLE0=I Really Don't Want To Know
TTITLE1=Fingerprints
TTITLE2=Guitar Man
TTITLE3=Walk On By
TTITLE4=Moonshine Man
TTITLE5=Now She's Anybody's Song
TTITLE6=Baby Don't Save Your Love For A Rainy Day
TTITLE7=The Tried And Tested Kind
TTITLE8=I Can't Dance
TTITLE9=I Need Somebody Bad
TTITLE10=Let's Put Out The Fire
TTITLE11=Country Pride
TTITLE12=Pass Me By
TTITLE13=House Of Pride
TTITLE14=Listen
TTITLE15=Your Love Will Be Enough
TTITLE16=Hide Me From The World
TTITLE17=She Likes To Boogie When He's Gone
TTITLE18=Green River
TTITLE19=Loving You Could Never Be Better
EXTD=
EXTT0=
EXTT1=
EXTT2=
EXTT3=
EXTT4=
EXTT5=
EXTT6=
EXTT7=
EXTT8=
EXTT9=
EXTT10=
EXTT11=
EXTT12=
EXTT13=
EXTT14=
EXTT15=
EXTT16=
EXTT17=
EXTT18=
EXTT19=
PLAYORDER=
